# xmcd
#
# Track frame offsets:
#	150
#	16860
#	33965
#	50430
#	63580
#	82245
#	99190
#	113735
#	127610
#	141785
#	157395
#	175090
#	188600
#	202810
#
# Disc length: 2883 seconds
#
# Revision: 1
# Processed by: cddbd v1.5.1PL0 Copyright (c) Steve Scherf et al.
# Submitted via: EasyCDDAExtractor 6.5.7.1
#
DISCID=af0b410e
DTITLE=Os Gaudérios - Sul do Meu País
DYEAR=1900
DGENRE=Gaúcha
TTITLE0=Está Chegando a Vaneira
TTITLE1=Canto Farrapo
TTITLE2=O Sul do meu País
TTITLE3=Terra do Chimarrão
TTITLE4=Cantor Gaudério
TTITLE5=Vontade Louca
TTITLE6=Me dá licença Parceiro
TTITLE7=Sentindo a Doma
TTITLE8=Coisas Nossas
TTITLE9=Milonga pra Recordar
TTITLE10=No Bailado do Bugiu
TTITLE11=Dê Tempo ao Tempo
TTITLE12=De Bailanta em Bailanta
TTITLE13=Ombro Amigo
EXTD=
EXTT0=
EXTT1=
EXTT2=
EXTT3=
EXTT4=
EXTT5=
EXTT6=
EXTT7=
EXTT8=
EXTT9=
EXTT10=
EXTT11=
EXTT12=
EXTT13=
PLAYORDER=
